<svg xmlns="http://www.w3.org/2000/svg" viewBox="0 0 700 524" width="700" height="524">
  <!--
    Meridian APRS wordmark — stacked lockup
    SECONDARY — icon purple + text near-black
    Icon color: #4D1D8C   Text color: #19141F
    Font: "Inter", "Inter Tight", system-ui, -apple-system, "Segoe UI", Roboto, sans-serif
  -->
  <title>Meridian APRS</title>
  
  <g transform="translate(132.484 -66.863) scale(0.8497)">
    <path fill="#4D1D8C" fill-rule="evenodd" d="M 256 420
    C 226 288.9 148 235.9 150 220
    A 106 106 0 0 1 362 220
    C 364 235.9 286 288.9 256 420
    Z

    M 204 158
    L 228 158
    L 256 216
    L 284 158
    L 308 158
    Q 314 158 314 164
    L 314 280
    Q 314 286 308 286
    L 288 286
    Q 282 286 282 280
    L 282 210
    L 256 262
    L 230 210
    L 230 280
    Q 230 286 224 286
    L 204 286
    Q 198 286 198 280
    L 198 164
    Q 198 158 204 158
    Z"/>
  </g>
  <text x="350.0" y="432.4"
        font-family='"Inter", "Inter Tight", system-ui, -apple-system, "Segoe UI", Roboto, sans-serif' font-weight="700" font-size="120"
        fill="#19141F" letter-spacing="-2" text-anchor="middle">Meridian</text>
  <text x="350.0" y="481.2"
        font-family='"Inter", "Inter Tight", system-ui, -apple-system, "Segoe UI", Roboto, sans-serif' font-weight="500" font-size="40"
        fill="#19141F" letter-spacing="12" text-anchor="middle">APRS</text>
</svg>
